<?xml version="1.0" standalone="no"?>
<!DOCTYPE svg PUBLIC "-//W3C//DTD SVG 20010904//EN"
 "http://www.w3.org/TR/2001/REC-SVG-20010904/DTD/svg10.dtd">
<svg version="1.0" xmlns="http://www.w3.org/2000/svg"
 width="450.000000pt" height="450.000000pt" viewBox="0 0 450.000000 450.000000"
 preserveAspectRatio="xMidYMid meet">
<metadata>
Created by potrace 1.11, written by Peter Selinger 2001-2013
</metadata>
<g transform="translate(0.000000,450.000000) scale(0.100000,-0.100000)"
fill="#000000" stroke="none">
<path d="M0 2250 l0 -2250 2250 0 2250 0 0 2250 0 2250 -2250 0 -2250 0 0
-2250z m2545 1765 c486 -84 903 -346 1188 -747 61 -87 156 -268 201 -383 89
-232 121 -428 113 -695 -3 -102 -7 -194 -10 -205 -3 -11 -8 -40 -12 -65 -12
-77 -55 -231 -90 -320 -237 -617 -792 -1053 -1451 -1141 -102 -13 -464 -6
-529 11 -22 5 -72 17 -111 25 -300 64 -618 242 -855 479 -534 534 -677 1343
-357 2026 269 575 815 962 1453 1030 109 12 351 4 460 -15z"/>
<path d="M2446 3051 c-33 -37 -630 -918 -634 -937 -3 -12 40 -14 242 -14 135
0 246 -2 246 -5 0 -2 -53 -145 -119 -317 -122 -322 -139 -374 -122 -363 6 3
93 128 194 278 101 150 246 363 321 474 75 112 134 207 131 213 -4 6 -97 10
-246 10 -131 0 -239 2 -239 4 0 4 91 247 202 536 28 75 49 140 44 140 -2 0
-11 -9 -20 -19z"/>
</g>
</svg>
